<!DOCTYPE svg PUBLIC "-//W3C//DTD SVG 20010904//EN" "http://www.w3.org/TR/2001/REC-SVG-20010904/DTD/svg10.dtd">
<svg version="1.0" xmlns="http://www.w3.org/2000/svg" width="890px" height="875px" viewBox="0 0 8900 8750" preserveAspectRatio="xMidYMid meet">
<g id="layer101" fill="#19218f" stroke="none">
 <path d="M3275 8719 c-1185 -332 -2210 -1176 -2787 -2295 -247 -479 -387 -938 -455 -1484 -25 -204 -25 -712 0 -925 98 -831 386 -1575 866 -2235 265 -365 629 -723 1000 -984 1183 -831 2835 -1019 4206 -479 801 315 1512 898 2010 1648 430 647 678 1342 756 2120 18 177 15 589 -5 775 -96 890 -454 1725 -1044 2433 -102 122 -361 387 -492 502 -343 301 -743 554 -1150 728 -194 82 -256 82 -341 -1 -66 -66 -1665 -2456 -1690 -2527 -24 -68 -24 -126 -1 -154 9 -12 97 -64 194 -115 465 -248 738 -490 896 -795 99 -190 136 -338 135 -531 -1 -147 -22 -241 -83 -368 -51 -108 -89 -161 -174 -251 -343 -356 -855 -385 -1251 -70 -167 132 -281 326 -329 559 -38 187 -39 239 -32 2357 5 1425 4 2058 -3 2071 -24 44 -113 53 -226 21z m-778 -1626 c-2 -27 -3 -5 -3 47 0 52 1 74 3 48 2 -27 2 -69 0 -95z m4223 -108 c19 -19 32 -35 29 -35 -3 0 -20 16 -39 35 -19 19 -32 35 -29 35 3 0 20 -16 39 -35z m-4530 12 c0 -1 -24 -25 -52 -52 l-53 -50 50 53 c46 48 55 57 55 49z m-170 -170 c0 -1 -24 -25 -52 -52 l-53 -50 50 53 c46 48 55 57 55 49z m4940 -82 c19 -19 32 -35 29 -35 -3 0 -20 16 -39 35 -19 19 -32 35 -29 35 3 0 20 -16 39 -35z m-4473 -882 c-1 -98 -2 -18 -2 177 0 195 1 275 2 178 2 -98 2 -258 0 -355z m-10 -1210 c-1 -60 -3 -11 -3 107 0 118 2 167 3 108 2 -60 2 -156 0 -215z m-1430 60 c-3 -10 -5 -2 -5 17 0 19 2 27 5 18 2 -10 2 -26 0 -35z m6810 -85 c-2 -13 -4 -3 -4 22 0 25 2 35 4 23 2 -13 2 -33 0 -45z m-6820 -65 c-2 -16 -4 -3 -4 27 0 30 2 43 4 28 2 -16 2 -40 0 -55z m5370 -215 c-2 -29 -3 -6 -3 52 0 58 1 81 3 53 2 -29 2 -77 0 -105z m1460 45 c-2 -21 -4 -4 -4 37 0 41 2 58 4 38 2 -21 2 -55 0 -75z m-5380 -30 c-2 -16 -4 -5 -4 22 0 28 2 40 4 28 2 -13 2 -35 0 -50z m-1450 -140 c-2 -16 -4 -3 -4 27 0 30 2 43 4 28 2 -16 2 -40 0 -55z m6820 -45 c-2 -13 -4 -3 -4 22 0 25 2 35 4 23 2 -13 2 -33 0 -45z m-1460 5 c-3 -10 -5 -2 -5 17 0 19 2 27 5 18 2 -10 2 -26 0 -35z m-447 -1006 c0 -2 -17 -19 -37 -38 l-38 -34 34 38 c33 34 41 42 41 34z m-2880 -112 c47 -47 82 -85 80 -85 -3 0 -43 38 -90 85 -47 47 -82 85 -80 85 3 0 43 -38 90 -85z m2720 -48 c0 -2 -15 -16 -32 -33 l-33 -29 29 33 c28 30 36 37 36 29z m1711 -106 c-17 -34 -33 -61 -36 -61 -3 0 10 29 27 65 18 35 34 63 36 61 2 -2 -11 -31 -27 -65z m-3163 -438 c-10 -2 -28 -2 -40 0 -13 2 -5 4 17 4 22 1 32 -1 23 -4z m260 0 c-10 -2 -28 -2 -40 0 -13 2 -5 4 17 4 22 1 32 -1 23 -4z m2402 -306 c0 -2 -15 -16 -32 -33 l-33 -29 29 33 c28 30 36 37 36 29z m-5025 -77 c27 -27 47 -50 44 -50 -3 0 -27 23 -54 50 -27 28 -47 50 -44 50 3 0 27 -22 54 -50z m4915 -43 c0 -1 -28 -29 -62 -62 l-63 -60 60 63 c55 58 65 67 65 59z m-4740 -132 c30 -30 52 -55 49 -55 -2 0 -29 25 -59 55 -30 30 -52 55 -49 55 2 0 29 -25 59 -55z m4580 -18 c0 -2 -15 -16 -32 -33 l-33 -29 29 33 c28 30 36 37 36 29z m-680 -482 c0 -2 -22 -16 -50 -30 -27 -14 -50 -23 -50 -20 0 2 21 16 48 29 53 28 52 28 52 21z m-1842 -382 c-10 -2 -28 -2 -40 0 -13 2 -5 4 17 4 22 1 32 -1 23 -4z m520 0 c-10 -2 -26 -2 -35 0 -10 3 -2 5 17 5 19 0 27 -2 18 -5z m-216 -10 c-40 -2 -103 -2 -140 0 -37 2 -4 3 73 3 77 0 107 -2 67 -3z"/>
 </g>
<g id="layer102" fill="#3b489f" stroke="none">
 <path d="M3275 8719 c-1185 -332 -2210 -1176 -2787 -2295 -247 -479 -387 -938 -455 -1484 -25 -204 -25 -712 0 -925 98 -831 386 -1575 866 -2235 265 -365 629 -723 1000 -984 1183 -831 2835 -1019 4206 -479 801 315 1512 898 2010 1648 430 647 678 1342 756 2120 18 177 15 589 -5 775 -96 890 -454 1725 -1044 2433 -102 122 -361 387 -492 502 -343 301 -743 554 -1150 728 -194 82 -256 82 -341 -1 -66 -66 -1665 -2456 -1690 -2527 -24 -68 -24 -126 -1 -154 9 -12 97 -64 194 -115 465 -248 738 -490 896 -795 99 -190 136 -338 135 -531 -1 -147 -22 -241 -83 -368 -51 -108 -89 -161 -174 -251 -343 -356 -855 -385 -1251 -70 -167 132 -281 326 -329 559 -38 187 -39 239 -32 2357 5 1425 4 2058 -3 2071 -24 44 -113 53 -226 21z m3053 -1438 c2 -6 8 -9 13 -5 5 3 12 -2 15 -10 3 -9 10 -14 14 -11 4 2 20 -8 36 -22 16 -15 32 -28 36 -28 4 0 14 -9 23 -20 9 -11 14 -13 10 -5 -4 8 3 4 15 -10 12 -14 26 -25 31 -25 6 0 14 -7 19 -15 5 -8 14 -15 20 -15 6 0 22 -13 36 -30 14 -16 23 -23 19 -15 -3 8 12 -5 35 -30 23 -25 39 -38 35 -30 -3 8 26 -19 66 -60 40 -41 76 -74 81 -72 4 1 7 -2 6 -7 -2 -6 33 -44 77 -86 44 -42 73 -73 65 -70 -8 4 3 -9 25 -28 22 -19 40 -39 40 -44 0 -5 14 -22 30 -37 17 -15 23 -25 15 -21 -8 4 -3 -3 13 -15 15 -12 25 -26 22 -30 -3 -5 4 -14 15 -20 11 -6 18 -15 15 -20 -3 -5 4 -14 15 -20 11 -6 19 -14 18 -18 -2 -4 10 -20 25 -36 14 -16 24 -32 22 -36 -3 -4 2 -11 11 -14 8 -3 13 -10 10 -15 -3 -5 1 -12 10 -15 8 -3 13 -10 10 -15 -3 -5 1 -12 10 -15 8 -3 13 -10 10 -15 -3 -5 1 -12 10 -15 9 -4 14 -9 11 -13 -4 -3 0 -11 8 -17 7 -6 15 -17 17 -25 2 -8 11 -23 21 -33 10 -10 15 -23 12 -28 -4 -6 -2 -10 4 -10 13 0 42 -55 34 -64 -4 -3 -1 -6 5 -6 14 0 144 -258 136 -271 -3 -5 0 -9 7 -9 7 0 10 -3 6 -6 -3 -4 1 -13 9 -21 8 -9 13 -22 10 -29 -3 -8 -1 -14 3 -14 11 0 31 -56 24 -64 -4 -3 -2 -6 4 -6 10 0 26 -39 27 -65 1 -5 4 -12 7 -15 11 -9 69 -191 64 -200 -3 -5 0 -10 5 -12 6 -2 12 -17 13 -33 1 -17 5 -32 8 -35 10 -8 59 -222 53 -232 -3 -5 -1 -15 6 -22 6 -8 12 -34 13 -58 2 -24 6 -49 11 -56 4 -7 5 -24 2 -37 -3 -13 -1 -27 5 -31 6 -4 8 -20 5 -39 -4 -20 -2 -36 4 -40 6 -4 11 -25 11 -48 0 -23 3 -87 6 -142 7 -134 7 -229 0 -355 -3 -58 -6 -124 -6 -147 0 -23 -5 -44 -11 -48 -5 -3 -7 -17 -4 -31 3 -13 3 -32 -1 -41 -4 -10 -9 -38 -11 -62 -2 -25 -6 -52 -10 -60 -4 -9 -8 -36 -10 -60 -2 -24 -8 -47 -14 -51 -6 -4 -8 -14 -5 -22 4 -9 2 -19 -3 -22 -6 -3 -8 -15 -5 -26 3 -11 1 -20 -5 -20 -6 0 -8 -9 -5 -20 3 -12 0 -20 -6 -20 -7 0 -9 -5 -6 -10 3 -6 3 -15 -1 -22 -4 -7 -9 -26 -11 -43 -2 -16 -8 -32 -13 -33 -6 -2 -8 -8 -5 -12 7 -11 -64 -224 -75 -228 -5 -2 -7 -9 -4 -16 3 -8 -1 -20 -8 -27 -7 -8 -13 -18 -13 -24 -1 -24 -27 -85 -37 -85 -6 0 -9 -3 -5 -6 8 -8 -13 -64 -25 -64 -5 0 -6 -4 -3 -10 3 -5 1 -10 -5 -10 -6 0 -8 -4 -5 -10 3 -6 1 -10 -5 -10 -6 0 -9 -4 -6 -9 8 -12 -73 -171 -86 -171 -6 0 -9 -3 -5 -6 8 -9 -31 -84 -44 -84 -6 0 -8 -4 -4 -10 3 -5 -2 -18 -12 -28 -10 -10 -19 -25 -21 -33 -2 -8 -8 -19 -15 -24 -7 -6 -13 -16 -15 -23 -4 -22 -94 -150 -109 -156 -8 -3 -12 -10 -9 -15 3 -5 -7 -21 -21 -37 -15 -16 -28 -33 -28 -37 0 -5 -8 -14 -17 -21 -10 -7 -15 -16 -12 -19 3 -3 -6 -13 -20 -22 -14 -10 -23 -21 -21 -26 3 -4 -6 -16 -20 -25 -13 -9 -23 -20 -20 -24 3 -5 -10 -21 -27 -36 -18 -15 -32 -31 -31 -35 2 -5 -24 -32 -57 -60 -32 -29 -57 -55 -55 -59 2 -4 -24 -33 -58 -66 -34 -32 -53 -47 -42 -33 11 14 -8 -4 -42 -40 -34 -36 -67 -65 -72 -64 -5 1 -21 -13 -36 -33 -14 -19 -30 -32 -35 -29 -4 3 -15 -7 -24 -20 -9 -14 -21 -23 -25 -20 -5 2 -16 -7 -26 -21 -9 -14 -19 -24 -21 -21 -3 2 -19 -9 -35 -24 -17 -16 -35 -27 -40 -24 -4 3 -13 -4 -19 -15 -6 -11 -15 -18 -19 -15 -5 3 -12 -2 -15 -11 -3 -8 -10 -13 -15 -10 -5 3 -12 -1 -15 -10 -3 -8 -10 -13 -15 -10 -5 3 -12 -1 -15 -10 -3 -8 -10 -12 -16 -9 -5 3 -10 2 -10 -3 0 -10 -41 -40 -61 -44 -7 -2 -21 -11 -31 -21 -10 -10 -23 -15 -28 -12 -6 4 -10 2 -10 -4 0 -13 -55 -42 -64 -34 -3 4 -6 1 -6 -6 0 -7 -4 -9 -10 -6 -5 3 -10 2 -10 -4 0 -13 -159 -93 -171 -85 -5 3 -9 0 -9 -6 0 -6 -4 -8 -10 -5 -5 3 -10 1 -10 -5 0 -6 -4 -8 -10 -5 -5 3 -10 2 -10 -3 0 -11 -60 -35 -60 -24 0 4 -4 2 -8 -5 -4 -6 -16 -13 -27 -15 -11 -1 -23 -7 -26 -11 -3 -4 -16 -9 -27 -10 -12 -1 -22 -4 -22 -7 0 -8 -110 -45 -127 -43 -7 0 -13 -2 -13 -6 0 -6 -86 -34 -115 -37 -5 0 -21 -5 -35 -11 -41 -17 -252 -65 -258 -59 -3 3 -11 1 -18 -5 -8 -6 -21 -8 -30 -5 -9 4 -22 1 -30 -5 -7 -6 -35 -12 -61 -13 -27 -1 -54 -5 -60 -9 -6 -4 -26 -7 -45 -7 -18 0 -53 -3 -78 -6 -227 -27 -542 -23 -810 10 -25 3 -56 6 -70 7 -14 0 -30 5 -36 10 -6 5 -19 7 -28 3 -9 -3 -23 -1 -31 6 -8 6 -18 9 -23 6 -12 -7 -125 14 -132 25 -3 4 -12 7 -20 6 -21 -3 -140 24 -140 32 0 3 -15 7 -32 8 -18 2 -34 7 -36 13 -2 6 -7 8 -11 5 -11 -6 -195 56 -199 67 -2 4 -7 6 -12 3 -8 -5 -131 42 -140 54 -3 3 -12 7 -20 9 -31 6 -70 25 -70 34 0 5 -4 6 -10 3 -6 -3 -10 -1 -10 5 0 6 -5 8 -10 5 -5 -3 -10 -1 -10 4 0 6 -3 10 -7 9 -13 -4 -73 24 -73 34 0 5 -4 6 -10 3 -5 -3 -10 -1 -10 5 0 6 -5 8 -10 5 -5 -3 -10 -1 -10 5 0 6 -4 8 -10 5 -6 -3 -10 -1 -10 6 0 7 -3 9 -6 6 -8 -8 -64 24 -64 36 0 4 -4 6 -10 2 -5 -3 -18 2 -28 12 -10 10 -25 19 -33 21 -8 2 -19 10 -25 17 -6 8 -14 12 -17 8 -4 -3 -9 2 -13 11 -3 9 -10 14 -14 11 -4 -3 -11 2 -14 11 -3 8 -10 13 -14 10 -5 -3 -20 5 -33 17 -13 12 -27 21 -32 19 -4 -1 -10 5 -13 13 -3 8 -10 13 -14 10 -4 -2 -25 12 -46 33 -21 20 -35 30 -30 22 4 -8 -2 -4 -14 10 -12 14 -27 25 -32 25 -5 0 -18 11 -29 25 -12 14 -18 18 -14 10 4 -8 -6 -1 -21 15 -15 17 -32 30 -37 30 -5 0 -25 18 -44 40 -19 22 -32 34 -28 28 3 -7 5 -13 3 -13 -2 0 -66 64 -143 141 -77 78 -133 138 -125 134 8 -4 -7 14 -35 39 -27 26 -43 44 -35 41 8 -4 -3 10 -25 30 -22 20 -33 34 -25 30 8 -4 3 3 -13 15 -15 12 -25 26 -21 31 3 5 -2 12 -10 15 -8 3 -27 22 -42 42 -15 19 -21 32 -13 28 8 -4 5 0 -6 9 -11 9 -19 21 -17 26 1 5 -2 9 -8 9 -13 0 -71 86 -63 94 4 3 2 6 -4 6 -11 0 -41 40 -45 62 -2 7 -10 18 -18 25 -8 7 -12 13 -7 13 4 0 -2 9 -13 20 -12 12 -18 25 -15 30 4 6 2 10 -4 10 -13 0 -42 55 -34 64 4 3 2 6 -4 6 -13 0 -65 95 -56 104 3 3 1 6 -6 6 -7 0 -9 5 -6 10 3 5 1 10 -5 10 -6 0 -8 4 -5 10 3 5 2 10 -3 10 -8 0 -59 102 -64 130 -2 8 -9 21 -15 28 -11 12 -14 23 -13 47 1 3 -6 13 -15 22 -9 8 -14 20 -12 27 2 6 -3 17 -10 25 -8 7 -12 20 -9 27 3 8 2 14 -2 14 -11 0 -43 90 -36 101 3 5 0 9 -6 9 -7 0 -10 7 -6 15 3 8 1 15 -5 15 -6 0 -9 7 -5 15 3 8 1 15 -4 15 -8 0 -24 56 -25 85 0 6 -3 12 -7 16 -4 3 -9 18 -11 35 -2 16 -7 35 -11 42 -4 7 -4 17 -1 22 3 6 1 10 -6 10 -6 0 -9 8 -6 20 3 11 1 23 -5 26 -5 3 -7 12 -4 20 3 7 1 16 -5 20 -5 3 -7 14 -4 24 3 10 1 21 -5 25 -6 4 -8 15 -5 25 3 10 1 21 -5 25 -6 4 -9 14 -6 22 4 9 1 22 -5 29 -6 8 -8 21 -5 30 4 9 1 23 -5 30 -6 8 -8 25 -5 38 3 14 1 28 -4 31 -6 4 -10 23 -11 43 0 20 -2 62 -5 92 -6 73 -7 498 0 575 2 33 7 78 10 100 2 22 7 69 11 105 3 36 10 69 15 74 4 4 6 15 3 22 -3 8 0 21 7 29 6 8 9 19 5 25 -3 5 -3 16 2 23 4 6 9 30 10 51 2 22 8 43 13 46 6 4 8 14 4 23 -3 10 -1 17 6 17 7 0 9 8 5 20 -3 11 -2 20 3 20 6 0 8 9 5 20 -3 11 -1 20 3 20 5 0 10 15 11 32 2 18 7 34 13 36 6 2 8 7 5 12 -6 10 55 194 66 198 4 2 5 10 2 18 -3 8 0 14 6 14 6 0 8 6 5 14 -3 7 1 20 9 27 7 8 12 19 10 25 -2 7 3 18 11 27 8 8 13 17 10 20 -7 7 18 57 28 57 5 0 7 4 3 9 -7 12 25 81 37 81 5 0 6 5 3 10 -3 6 -1 10 4 10 6 0 10 3 8 8 -4 12 35 92 45 92 5 0 6 5 3 10 -3 6 -1 10 5 10 6 0 8 5 5 10 -3 6 -1 10 6 10 7 0 10 3 6 6 -9 9 31 84 45 84 6 0 9 3 5 6 -8 8 20 64 32 64 4 0 8 6 8 13 0 17 33 67 45 67 5 0 7 4 4 9 -3 5 1 12 10 15 8 3 13 10 10 15 -3 5 1 12 10 15 8 3 13 10 10 15 -3 5 1 12 10 15 8 3 13 10 10 15 -3 5 1 12 10 15 8 3 13 10 10 15 -3 5 7 21 21 37 15 16 27 32 25 36 -1 4 7 12 18 18 11 6 18 15 15 20 -3 5 4 14 15 20 11 6 18 15 15 20 -3 5 6 17 20 26 13 9 23 20 20 24 -3 5 8 18 25 30 17 12 28 25 25 30 -3 4 14 25 37 45 24 20 36 34 28 30 -8 -4 46 54 120 129 74 75 136 136 138 136 2 0 0 -6 -3 -12 -4 -7 9 5 28 27 19 22 40 40 45 40 6 0 20 12 32 27 11 15 25 27 29 25 5 -1 18 9 30 23 13 14 20 18 16 10 -4 -8 3 -3 15 13 12 15 25 25 30 22 4 -3 11 2 14 11 3 8 10 13 15 9 6 -3 14 2 19 12 5 9 17 18 27 19 16 2 17 -11 10 -179 -13 -344 -19 -2463 -7 -2672 8 -148 9 -160 17 -177 4 -10 4 -25 1 -34 -4 -9 -1 -23 5 -30 6 -8 8 -21 5 -30 -4 -9 -1 -23 5 -30 6 -8 9 -20 6 -28 -3 -7 -1 -18 4 -23 5 -5 11 -25 12 -44 1 -19 5 -37 10 -40 4 -3 9 -20 10 -37 1 -18 6 -32 11 -32 4 0 6 -7 2 -15 -3 -8 -1 -15 5 -15 6 0 9 -7 5 -15 -3 -8 -1 -15 5 -15 6 0 9 -6 6 -14 -3 -8 -2 -16 3 -18 4 -2 10 -12 12 -23 1 -11 6 -22 10 -25 3 -3 8 -14 10 -25 1 -11 6 -24 10 -30 15 -19 97 -185 93 -185 -3 0 4 -9 15 -20 12 -12 18 -25 15 -30 -4 -6 -2 -10 3 -10 5 0 26 -25 46 -55 20 -30 33 -55 30 -55 -3 0 4 -9 17 -20 13 -10 20 -19 14 -20 -5 0 1 -7 13 -16 12 -8 20 -19 18 -23 -3 -4 8 -18 24 -30 17 -12 29 -25 28 -29 0 -4 52 -60 116 -125 64 -64 114 -111 111 -105 -4 7 6 0 21 -17 15 -16 30 -30 33 -30 13 0 100 -68 105 -82 3 -8 10 -11 16 -8 6 3 13 -1 16 -9 3 -9 10 -13 15 -10 5 3 12 -2 15 -10 3 -9 10 -13 15 -11 4 3 17 -2 27 -12 10 -10 25 -19 33 -21 8 -2 19 -10 25 -17 6 -8 14 -12 17 -8 4 3 7 0 7 -7 0 -7 3 -11 6 -7 7 7 127 -51 132 -64 2 -5 8 -7 13 -3 5 3 9 1 9 -3 0 -5 10 -9 22 -10 11 -1 24 -6 27 -10 3 -4 15 -10 26 -11 11 -2 22 -7 25 -10 3 -4 10 -7 15 -7 20 -1 130 -40 136 -49 4 -4 11 -6 17 -2 6 3 13 2 17 -3 3 -6 12 -8 19 -5 8 3 17 1 20 -4 3 -6 15 -8 26 -5 12 3 20 0 20 -7 0 -7 8 -9 19 -5 11 3 22 1 26 -5 4 -6 15 -8 26 -5 10 4 24 3 31 -2 7 -4 27 -8 43 -9 17 -2 62 -5 100 -9 89 -8 191 -8 280 0 39 4 84 7 100 9 17 1 36 5 43 9 7 5 21 5 32 2 12 -4 20 -2 20 5 0 8 9 10 25 6 15 -4 25 -2 25 4 0 6 8 10 18 9 9 -1 24 1 32 4 8 4 26 8 40 9 14 2 27 5 30 8 6 6 151 54 165 55 6 0 13 4 16 8 3 4 16 9 27 10 12 1 22 4 22 8 0 8 70 34 83 31 4 -1 7 3 7 9 0 5 5 7 10 4 6 -3 10 -1 10 5 0 6 5 8 10 5 6 -3 10 -1 10 5 0 6 5 8 10 5 6 -3 10 -1 10 5 0 6 5 8 10 5 6 -3 10 -2 10 3 0 12 76 53 84 45 3 -3 6 -1 6 5 0 11 52 44 66 41 4 0 10 5 15 13 5 7 12 13 16 13 4 0 21 13 37 27 15 15 32 26 36 25 4 -1 17 9 29 23 13 14 19 18 16 10 -4 -8 4 -1 18 15 14 17 29 30 34 30 5 0 24 17 42 37 18 21 36 36 40 34 3 -2 33 23 66 57 33 34 51 55 40 48 -11 -8 2 8 30 35 27 27 49 52 47 56 -1 4 9 15 23 24 14 9 22 20 20 25 -3 4 4 13 15 19 11 6 18 15 15 19 -2 5 8 21 22 37 15 16 26 33 25 37 -1 4 5 10 13 13 8 3 12 10 10 15 -3 4 2 17 12 27 10 10 19 25 21 33 2 8 10 20 19 27 9 6 14 12 10 12 -9 0 62 143 75 151 5 3 9 9 9 13 -3 21 1 36 12 48 6 7 12 18 12 23 1 18 50 160 57 163 4 2 5 9 2 17 -3 7 -1 16 4 19 6 3 8 15 5 26 -3 12 0 20 7 20 7 0 9 8 5 19 -3 11 -1 22 4 25 6 4 8 13 4 21 -3 9 0 21 6 29 6 7 9 21 5 30 -3 9 -3 24 1 34 4 9 9 35 10 57 5 82 4 352 -1 405 -3 30 -6 66 -7 80 -1 14 -6 31 -11 38 -4 7 -5 20 -2 29 4 8 1 21 -4 29 -6 7 -10 18 -9 26 1 7 -1 20 -4 28 -14 34 -36 134 -31 142 3 4 0 8 -6 8 -7 0 -10 7 -6 15 3 8 1 15 -5 15 -6 0 -9 7 -5 15 3 8 1 15 -5 15 -6 0 -9 7 -5 15 3 8 1 15 -5 15 -6 0 -9 7 -5 15 3 8 2 15 -3 15 -8 0 -38 80 -33 93 1 4 -2 7 -7 7 -10 0 -37 69 -33 83 1 4 -3 7 -9 7 -5 0 -7 5 -4 10 3 6 1 10 -5 10 -6 0 -8 5 -5 10 3 6 1 10 -5 10 -6 0 -8 5 -5 10 3 6 1 10 -5 10 -6 0 -8 5 -5 10 3 6 2 10 -2 10 -5 0 -17 14 -26 30 -10 17 -16 30 -13 30 3 0 -3 9 -14 20 -12 12 -18 25 -15 29 2 5 -2 12 -11 15 -8 3 -13 10 -10 15 3 5 -1 12 -10 15 -8 3 -13 10 -10 15 3 5 -1 12 -10 15 -9 4 -15 9 -12 12 3 2 -8 19 -23 35 -16 17 -27 35 -24 39 3 4 -6 15 -20 24 -14 9 -24 20 -22 25 1 4 -13 20 -30 35 -18 15 -32 30 -31 34 1 4 -33 42 -76 86 -43 43 -75 72 -71 65 4 -8 -8 2 -26 21 -18 19 -37 34 -41 33 -4 -2 -15 8 -24 22 -9 14 -20 23 -24 20 -5 -3 -15 4 -23 15 -7 11 -17 17 -20 14 -4 -4 -9 1 -13 10 -3 9 -10 14 -14 11 -4 -2 -19 6 -33 19 -14 13 -28 22 -31 19 -2 -3 -9 5 -16 16 -6 12 -7 21 -2 21 5 0 9 6 9 13 0 17 33 67 45 67 5 0 6 5 3 10 -3 6 0 13 8 16 7 2 14 10 14 17 0 17 33 67 45 67 5 0 6 5 3 10 -3 6 1 13 9 16 9 3 14 10 11 14 -3 5 3 13 12 19 10 5 16 11 13 14 -8 6 70 127 81 127 6 0 7 5 4 10 -3 6 1 13 9 16 9 3 13 10 10 15 -3 5 2 12 10 15 9 3 13 10 10 15 -3 5 2 12 10 15 9 3 13 10 10 15 -3 5 2 12 10 15 9 3 14 10 11 14 -3 4 2 11 11 14 8 3 13 10 10 15 -3 5 1 12 10 15 8 3 13 10 10 15 -3 5 1 12 10 15 8 3 12 10 9 16 -3 6 1 13 9 16 9 3 13 10 10 15 -3 5 2 12 10 15 9 3 13 10 10 15 -3 5 2 12 10 15 9 3 13 10 10 15 -3 5 2 12 10 15 9 3 13 10 10 15 -3 5 2 12 10 15 9 3 13 10 10 15 -3 5 2 12 10 15 9 3 13 10 10 15 -3 5 2 12 10 15 9 3 14 10 11 14 -3 5 3 13 12 19 10 6 15 11 10 11 -12 0 43 78 59 84 9 3 12 10 9 16 -3 6 1 13 9 16 9 3 13 10 10 15 -3 5 2 12 10 15 9 3 14 10 11 14 -3 5 3 13 12 19 10 6 14 11 9 11 -10 0 37 64 74 100 18 18 35 25 60 23 19 0 36 -6 38 -12z"/>
 </g>
<g id="layer103" fill="#00bfa5" stroke="none">
 <path d="M3275 8719 c-1185 -332 -2210 -1176 -2787 -2295 -247 -479 -387 -938 -455 -1484 -25 -204 -25 -712 0 -925 98 -831 386 -1575 866 -2235 265 -365 629 -723 1000 -984 1183 -831 2835 -1019 4206 -479 801 315 1512 898 2010 1648 430 647 678 1342 756 2120 18 177 15 589 -5 775 -96 890 -454 1725 -1044 2433 -102 122 -361 387 -492 502 -343 301 -743 554 -1150 728 -194 82 -256 82 -341 -1 -66 -66 -1665 -2456 -1690 -2527 -24 -68 -24 -126 -1 -154 9 -12 97 -64 194 -115 465 -248 738 -490 896 -795 99 -190 136 -338 135 -531 -1 -147 -22 -241 -83 -368 -51 -108 -89 -161 -174 -251 -343 -356 -855 -385 -1251 -70 -167 132 -281 326 -329 559 -38 187 -39 239 -32 2357 5 1425 4 2058 -3 2071 -24 44 -113 53 -226 21z m3114 -1473 c296 -202 602 -506 824 -819 348 -490 561 -1044 632 -1642 20 -166 23 -519 6 -675 -66 -591 -274 -1149 -605 -1624 -576 -827 -1413 -1327 -2411 -1442 -183 -21 -568 -24 -735 -5 -582 65 -1082 241 -1525 536 -193 129 -319 230 -479 385 -599 582 -966 1330 -1052 2140 -21 205 -14 574 15 770 62 420 166 745 359 1125 196 384 490 761 810 1037 120 103 246 198 263 198 8 0 10 -45 5 -177 -3 -98 -9 -711 -12 -1363 -6 -1238 -4 -1353 36 -1585 64 -376 239 -716 514 -1003 185 -192 355 -316 591 -432 389 -192 792 -243 1202 -156 729 157 1344 734 1519 1427 132 525 22 1123 -294 1594 -144 213 -307 380 -504 516 -49 33 -88 64 -88 68 0 23 688 1060 756 1139 49 58 73 56 173 -12z"/>
 </g>

</svg>